<svg width="43" height="43" viewBox="0 0 43 43" fill="none" xmlns="http://www.w3.org/2000/svg">
<g clip-path="url(#clip0_6003_9304)">
<path d="M43 36.2079L31.5738 19.2102L28.3555 24.0377L22.7598 16.0631V12.5977H36.136L32.9866 6.29883L36.136 0H20.2402C20.2402 1.62888 20.2402 14.0172 20.2402 16.0276L14.6276 24.0376L11.4262 19.2355L0 36.2331V37.9609H4.91275L2.51953 41.3176V43H40.4805V41.3171L38.0665 37.877H43V36.2079ZM22.7598 2.51953H32.0593L30.1696 6.29883L32.0593 10.0781H22.7598C22.7598 9.15371 22.7598 3.33116 22.7598 2.51953ZM21.4881 18.6372L27.5517 27.2785L25.3822 29.6156L21.5 24.4395L17.6181 29.6152L15.4405 27.268L21.4881 18.6372ZM3.60763 35.4414L11.4175 23.7646L13.0759 26.2521L6.67819 35.4414H3.60763ZM6.18259 40.4805L13.9616 29.3786L17.8232 33.541L21.5 28.6387L25.1764 33.5406L29.0316 29.3876L36.8154 40.4805H6.18259ZM36.2985 35.3574L29.9083 26.2506L31.5825 23.7394L39.3924 35.3574H36.2985Z" fill="white"/>
</g>
<defs>
<clipPath id="clip0_6003_9304">
<rect width="43" height="43" fill="white"/>
</clipPath>
</defs>
</svg>
