<svg width="59" height="48" viewBox="0 0 59 48" fill="none" xmlns="http://www.w3.org/2000/svg">
<path fill-rule="evenodd" clip-rule="evenodd" d="M36.5923 34.2765C36.5923 34.2895 36.5793 34.3025 36.5663 34.3025H32.1367C31.6449 34.3025 31.2458 34.7016 31.2458 35.1934V39.6245C31.2458 39.636 31.232 39.6505 31.2199 39.6505H27.5532C27.5409 39.6505 27.5272 39.6359 27.5272 39.6245V35.1934C27.5272 34.7016 27.1282 34.3025 26.6372 34.3025H22.2067C22.1946 34.3025 22.1807 34.2895 22.1807 34.2765V30.6099C22.1807 30.5984 22.1946 30.5839 22.2067 30.5839H26.6372C27.1282 30.5839 27.5272 30.1855 27.5272 29.6939V25.2636C27.5272 25.252 27.541 25.2376 27.5532 25.2376H31.2199C31.232 25.2376 31.2458 25.2522 31.2458 25.2636V29.6939C31.2458 30.1856 31.6449 30.5839 32.1367 30.5839H36.5663C36.5793 30.5839 36.5923 30.5985 36.5923 30.6099V34.2765ZM36.5663 28.8029H33.0275V25.2633C33.0275 24.2675 32.2164 23.4563 31.2199 23.4563H27.5532C26.5575 23.4563 25.7462 24.2674 25.7462 25.2633V28.8029H22.2066C21.2094 28.8029 20.3998 29.614 20.3998 30.6099V34.2765C20.3998 35.2739 21.2094 36.0835 22.2066 36.0835H25.7462V39.6246C25.7462 40.6204 26.5573 41.4315 27.5532 41.4315H31.2199C32.2164 41.4315 33.0275 40.6204 33.0275 39.6246V36.0835H36.5663C37.5629 36.0835 38.3733 35.2739 38.3733 34.2765V30.6099C38.3733 29.614 37.5629 28.8029 36.5663 28.8029ZM55.4689 17.5293C54.6294 17.5293 53.9469 16.8453 53.9469 16.0058C53.9469 15.1671 54.6294 14.483 55.4689 14.483C56.3076 14.483 56.9917 15.1671 56.9917 16.0058C56.9917 16.8453 56.3077 17.5293 55.4689 17.5293ZM42.8894 45.0851V19.8027C42.8894 19.3278 42.5018 18.9409 42.0284 18.9409H16.7453C16.2704 18.9409 15.8844 19.3278 15.8844 19.8027V45.0851C15.8844 45.5592 16.2704 45.9453 16.7453 45.9453H42.0286C42.5018 45.9454 42.8894 45.5592 42.8894 45.0851ZM23.9584 13.838C23.9584 13.1686 24.5046 12.6232 25.174 12.6232H33.599C34.2693 12.6232 34.8153 13.1686 34.8153 13.838V17.16H23.9584V13.838ZM1.78126 16.0058C1.78126 15.1671 2.46453 14.483 3.30323 14.483C4.14422 14.483 4.82681 15.1671 4.82681 16.0058C4.82681 16.8453 4.14435 17.5293 3.30323 17.5293C2.46439 17.5293 1.78126 16.8453 1.78126 16.0058ZM8.84494 3.30283C8.84494 2.46332 9.5274 1.78086 10.3669 1.78086C11.2064 1.78086 11.8904 2.46332 11.8904 3.30283C11.8904 4.14382 11.2063 4.82628 10.3669 4.82628C9.52753 4.82641 8.84494 4.14395 8.84494 3.30283ZM46.8832 3.30283C46.8832 2.46332 47.5657 1.78086 48.4068 1.78086C49.2455 1.78086 49.9288 2.46332 49.9288 3.30283C49.9288 4.14382 49.2455 4.82628 48.4068 4.82628C47.5657 4.82641 46.8832 4.14395 46.8832 3.30283ZM58.7725 16.0058C58.7725 14.1851 57.2912 12.7021 55.4689 12.7021C53.6474 12.7021 52.1653 14.1851 52.1653 16.0058C52.1653 17.5201 53.1878 18.7978 54.5781 19.1868V24.3418L44.6702 34.2504V26.9599L49.0356 22.5945C49.2033 22.4268 49.2967 22.2 49.2967 21.9649V6.48466C50.687 6.09405 51.7095 4.81636 51.7095 3.30283C51.7095 1.48137 50.2273 0 48.4067 0C46.5836 0 45.1023 1.48137 45.1023 3.30283C45.1023 4.81636 46.1256 6.09405 47.5159 6.48466V21.5958L44.6702 24.4421V19.8027C44.6702 18.3458 43.4853 17.16 42.0284 17.16H36.5962V13.838C36.5962 12.1866 35.2519 10.8423 33.5989 10.8423H25.1739C23.5209 10.8423 22.1774 12.1866 22.1774 13.838V17.16H16.7452C15.2883 17.16 14.1034 18.3458 14.1034 19.8027V24.4421L11.2571 21.5958V6.48466C12.6481 6.09405 13.6714 4.81636 13.6714 3.30283C13.6714 1.48137 12.1892 0 10.3669 0C8.54545 0 7.06394 1.48137 7.06394 3.30283C7.06394 4.81636 8.08569 6.09405 9.47594 6.48466V21.965C9.47594 22.2002 9.57015 22.4269 9.73711 22.5947L14.1031 26.96V34.252L4.19366 24.3419V19.1869C5.58539 18.7978 6.60794 17.5202 6.60794 16.0059C6.60794 14.1852 5.12577 12.7023 3.30283 12.7023C1.48204 12.7023 0 14.1852 0 16.0059C0 17.5202 1.02255 18.7979 2.4128 19.1869V24.7112C2.4128 24.9479 2.50701 25.1739 2.67397 25.3409L14.1031 36.77V45.0854C14.1031 46.5414 15.2881 47.7265 16.7449 47.7265H42.0282C43.485 47.7265 44.67 46.5416 44.67 45.0854V36.77L56.0991 25.3409C56.2646 25.1739 56.3588 24.948 56.3588 24.7112V19.1869C57.7493 18.7978 58.7725 17.5201 58.7725 16.0058Z" fill="url(#paint0_linear_4527_46166)"/>
<defs>
<linearGradient id="paint0_linear_4527_46166" x1="0" y1="23.8633" x2="58.7725" y2="23.8633" gradientUnits="userSpaceOnUse">
<stop stop-color="#DC2626"/>
<stop offset="1" stop-color="#F97316"/>
</linearGradient>
</defs>
</svg>
