<svg width="37" height="37" viewBox="0 0 37 37" fill="none" xmlns="http://www.w3.org/2000/svg">
<path d="M15.6094 9.75H32.9531C34.9085 9.75 36.5 11.3415 36.5 13.2969C36.5 13.5568 36.4713 13.818 36.415 14.0674V14.0693L34.1025 24.4736V24.4746C33.7485 26.0805 32.2892 27.25 30.6406 27.25H13.2969C11.3415 27.25 9.75 25.6585 9.75 23.7031C9.75 23.4432 9.77867 23.182 9.83496 22.9326V22.9307L12.1475 12.5264V12.5254C12.5015 10.9195 13.9608 9.75 15.6094 9.75ZM33.0625 13.7969L23.8193 20.0986C23.6083 20.242 23.3669 20.3125 23.125 20.3125C22.8428 20.3125 22.5642 20.2168 22.3379 20.0283H22.3369L15.0938 14.0088L14.4639 13.4854L14.2861 14.2842L12.2441 23.4678L12.2344 23.5137L12.2324 23.5605C12.2224 23.8828 12.3112 24.1883 12.5098 24.4209C12.7107 24.6561 12.9959 24.7812 13.2969 24.7812H30.6406C31.2131 24.7812 31.6005 24.358 31.6924 23.9404L31.6934 23.9414L33.832 14.3184L34.1064 13.0859L33.0625 13.7969ZM1.73438 21.3125H5.20312C5.88436 21.3125 6.4375 21.8656 6.4375 22.5469C6.4375 23.2281 5.88436 23.7812 5.20312 23.7812H1.73438C1.05314 23.7812 0.5 23.2281 0.5 22.5469C0.5 21.8656 1.05314 21.3125 1.73438 21.3125ZM17.8682 13.1035L22.9092 17.2939L23.1992 17.5342L23.5107 17.3223L29.6553 13.1318L30.9941 12.2188H16.8037L17.8682 13.1035ZM1.73438 13.2188H7.51562C8.19686 13.2188 8.75 13.7719 8.75 14.4531C8.75 15.1344 8.19686 15.6875 7.51562 15.6875H1.73438C1.05314 15.6875 0.5 15.1344 0.5 14.4531C0.5 13.7719 1.05314 13.2188 1.73438 13.2188Z" fill="#212121" stroke="#F3F3F3"/>
</svg>
