<svg width="32" height="32" viewBox="0 0 32 32" fill="none" xmlns="http://www.w3.org/2000/svg">
<rect width="32" height="32" rx="16" fill="#212121"/>
<g clip-path="url(#clip0_5391_129626)">
<path fill-rule="evenodd" clip-rule="evenodd" d="M16 8C13.7909 8 12 9.79086 12 12C12 14.2091 13.7909 16 16 16C18.2091 16 20 14.2091 20 12C20 9.79086 18.2091 8 16 8ZM13.3333 12C13.3333 10.5272 14.5272 9.33333 16 9.33333C17.4727 9.33333 18.6667 10.5272 18.6667 12C18.6667 13.4728 17.4727 14.6667 16 14.6667C14.5272 14.6667 13.3333 13.4728 13.3333 12Z" fill="white"/>
<path fill-rule="evenodd" clip-rule="evenodd" d="M12.6667 16.668C10.0893 16.668 8 18.7573 8 21.3346V23.3346C8 23.7028 8.29848 24.0013 8.66667 24.0013H23.3333C23.7015 24.0013 24 23.7028 24 23.3346V21.3346C24 18.7573 21.9107 16.668 19.3333 16.668H12.6667ZM9.33333 21.3346C9.33333 19.4937 10.8257 18.0013 12.6667 18.0013H19.3333C21.1743 18.0013 22.6667 19.4937 22.6667 21.3346V22.668H9.33333V21.3346Z" fill="white"/>
</g>
<defs>
<clipPath id="clip0_5391_129626">
<rect width="16" height="16" fill="white" transform="translate(8 8)"/>
</clipPath>
</defs>
</svg>
