<svg preserveAspectRatio="none" overflow="visible" style="display: block;" width="58" height="58" viewBox="0 0 58 58" fill="none" xmlns="http://www.w3.org/2000/svg">
<g id="Layer_1" clip-path="url(#clip0_5921_56526)">
<path id="Vector" d="M52.611 50.4104L45.0767 37.3606C45.0826 37.3278 45.0896 37.2954 45.0949 37.2623C45.3434 35.7296 46.2136 34.5397 47.6116 33.8212C50.7815 32.1916 52.0477 28.2649 50.4339 25.0678C49.7342 23.6823 49.7388 22.208 50.4471 20.8046C52.0544 17.6221 50.7706 13.7012 47.5853 12.0641C46.2049 11.3547 45.3421 10.1592 45.0902 8.60724C44.5198 5.08737 41.1771 2.67006 37.6374 3.21823C36.1034 3.456 34.7023 2.99574 33.5869 1.88819C31.0569 -0.623821 26.9312 -0.614532 24.3898 1.90903C23.2881 3.00299 21.8947 3.45532 20.3604 3.21845C18.6335 2.95066 16.9107 3.36413 15.5095 4.38219C14.1086 5.40014 13.1827 6.91097 12.9028 8.63658C12.6545 10.1693 11.7842 11.3592 10.3861 12.0777C7.21641 13.7071 5.95038 17.6336 7.56407 20.8309C8.26381 22.2164 8.25928 23.6906 7.55082 25.0941C5.94358 28.2765 7.22728 32.1975 10.4126 33.8346C11.793 34.5441 12.6558 35.7396 12.9078 37.2914C12.9116 37.315 12.9168 37.3379 12.9209 37.3613L5.38703 50.4104C5.23637 50.6714 5.22526 50.9902 5.35746 51.261C5.48966 51.5319 5.74783 51.7193 6.04633 51.7611L12.3393 52.6417L16.2487 57.6513C16.4211 57.8722 16.6851 58 16.963 58C16.984 58 17.005 57.9992 17.0261 57.9978C17.3268 57.9768 17.5973 57.8078 17.7481 57.5469L25.1846 44.6665C26.3172 45.4847 27.658 45.8944 28.9993 45.8944C30.3404 45.8944 31.6813 45.4848 32.814 44.6665L40.2502 57.5469C40.4009 57.8079 40.6715 57.9769 40.9722 57.9978C40.9933 57.9992 41.0143 58 41.0353 58C41.3132 58 41.5772 57.8722 41.7496 57.6513L45.659 52.6417L51.952 51.7611C52.2505 51.7193 52.5086 51.5319 52.6408 51.261C52.7728 50.9902 52.7617 50.6714 52.611 50.4104ZM16.8504 55.4765L13.5425 51.2376C13.3978 51.0521 13.1867 50.9302 12.9537 50.8976L7.62887 50.1525L13.7395 39.5685C15.0645 41.7838 17.6543 43.0992 20.3605 42.6805C21.6176 42.4857 22.785 42.7602 23.7794 43.475L16.8504 55.4765ZM25.6881 42.7244C24.4246 41.4698 22.8344 40.8079 21.1283 40.8079C20.7841 40.8079 20.435 40.8349 20.0831 40.8893C17.525 41.2856 15.1085 39.5417 14.6968 37.0012C14.3489 34.8581 13.1539 33.2058 11.2412 32.2225C8.93851 31.0391 8.00881 28.2077 9.16881 25.9108C10.1471 23.9729 10.1516 21.9338 9.18207 20.0139C8.01538 17.7025 8.9273 14.8654 11.2149 13.6895C13.1456 12.6973 14.348 11.0502 14.6921 8.92635C15.1139 6.32666 17.4818 4.60603 20.0832 5.00932C22.1791 5.33375 24.1622 4.68918 25.6671 3.19489C27.5043 1.37061 30.4843 1.36132 32.31 3.17405C33.8282 4.68182 35.8186 5.33341 37.915 5.00932C40.4733 4.61351 42.8896 6.35691 43.3012 8.89736C43.6491 11.0404 44.8441 12.693 46.757 13.6761C49.0597 14.8595 49.9894 17.6907 48.8294 19.9877C47.8511 21.9256 47.8465 23.9649 48.8161 25.8847C49.9828 28.1961 49.0709 31.0333 46.7833 32.2092C44.8526 33.2014 43.6503 34.8485 43.3061 36.9723C42.8914 39.528 40.4861 41.2873 37.9438 40.8939C35.7982 40.5623 33.85 41.1953 32.3102 42.7245C30.4844 44.5372 27.5137 44.537 25.6881 42.7244ZM45.0444 50.8976C44.8114 50.9302 44.6004 51.0521 44.4556 51.2376L41.1477 55.4765L34.2179 43.4735C35.2164 42.7509 36.3727 42.4852 37.6668 42.6851C37.9991 42.7365 38.3294 42.7614 38.6562 42.7614C40.9724 42.7613 43.0943 41.5079 44.2556 39.5635L50.3692 50.1525L45.0444 50.8976ZM44.0654 22.9489C44.0654 14.6412 37.3066 7.88247 28.999 7.88247C20.6914 7.88247 13.9326 14.6412 13.9326 22.9489C13.9326 31.2566 20.6914 38.0153 28.999 38.0153C37.3066 38.0153 44.0654 31.2566 44.0654 22.9489ZM42.2529 22.9489C42.2529 25.5477 41.5005 27.9737 40.203 30.0218C39.7335 30.3913 38.8085 30.6056 38.2674 30.617C38.376 30.2141 38.4752 29.8895 38.5655 29.5938C38.7924 28.8512 38.9563 28.3147 38.9742 27.4664C39.0089 25.8218 38.884 24.954 38.5286 24.371C38.0511 23.5877 37.2986 23.5305 36.7492 23.4888C36.3469 23.4582 35.9671 23.4294 35.5149 23.185C34.4352 22.6017 34.3054 22.2719 34.2941 22.2363C34.2725 22.1677 34.3878 21.937 34.472 21.7688C34.6582 21.3968 34.9498 20.814 34.8007 20.1268C34.8277 20.0943 34.857 20.0622 34.8851 20.0345C36.0353 20.3467 37.7272 20.4399 38.3268 20.2759C39.2823 20.014 39.7418 18.3214 39.6266 17.317C39.5035 16.243 38.7846 15.5505 37.7505 15.5099C37.5767 15.5037 37.3579 15.5299 36.9546 15.5816C36.7197 15.6118 36.2669 15.6699 35.9364 15.689C35.8626 15.2465 35.8591 14.6389 36.0818 14.4354C36.4907 14.0615 37.2943 13.7933 37.8811 13.5974C38.0161 13.5523 38.1397 13.5111 38.2532 13.4709C40.7192 15.8789 42.2529 19.2379 42.2529 22.9489ZM21.266 12.1915C21.6476 12.3144 21.94 12.4189 22.1872 12.5074C23.4981 12.9763 23.7247 12.9498 25.7673 12.5199C26.8875 12.2839 27.0702 12.4335 27.4339 12.7318C27.8089 13.0393 28.3224 13.4602 29.3761 13.6103C29.6761 13.653 29.8353 13.6889 29.9196 13.7151C29.9243 13.8031 29.7897 14.9971 29.7435 15.1142C29.5222 15.1721 29.2728 15.2238 29.0096 15.2783C27.189 15.6556 24.9047 16.566 24.507 18.6032C24.4578 18.8551 24.3254 18.9464 23.7201 19.1466C23.2709 19.2952 22.6556 19.4984 22.4198 20.1317C22.1812 20.7725 22.5346 21.3642 22.6508 21.5587C23.017 22.1717 23.14 22.5627 23.2298 22.8483C23.6292 24.1178 24.348 24.0596 25.6524 23.9538L25.8669 23.9366C26.4993 23.9904 29.445 24.9041 30.3157 25.9019C30.4435 26.0484 30.4655 26.133 30.4644 26.1477C30.3727 27.3563 29.9227 27.7357 29.2998 28.2606C28.648 28.81 27.8368 29.4937 27.6452 31.0432C27.5301 31.9741 27.282 32.5618 27.1028 32.8348C26.9303 32.5694 26.6267 31.9251 26.364 30.4522C25.8218 27.4122 24.7214 26.9132 23.6407 26.6627C23.3741 26.6008 23.327 26.5818 23.304 26.5482C23.2532 26.4738 23.0864 26.1419 23.0735 24.9886C23.0571 23.5154 22.2045 22.3118 20.9449 21.582C19.9656 21.0148 18.1751 19.9765 17.1064 17.103C18.0729 15.1447 19.5084 13.4584 21.266 12.1915ZM15.7451 22.9489C15.7451 21.7411 15.9085 20.5708 16.2125 19.4581C17.4936 21.6764 19.1435 22.6328 20.0363 23.1499C20.6093 23.4817 21.1227 23.9941 21.2486 24.6669C21.3743 25.339 21.2676 26.0308 21.4398 26.7098C21.682 27.665 22.2837 28.2083 23.2314 28.4281C23.7306 28.5437 24.202 28.653 24.5797 30.77C24.7573 31.7665 25.295 34.7823 27.0916 34.782C27.1059 34.782 27.1205 34.7818 27.135 34.7813C28.2948 34.7504 29.1796 33.4031 29.444 31.2653C29.5483 30.4212 29.9142 30.1129 30.468 29.6462C31.2051 29.0249 32.1225 28.2516 32.2718 26.2846C32.3186 25.6689 32.0641 25.0795 31.5155 24.5328C30.0818 23.1041 26.4952 22.0666 25.7603 22.1266L25.506 22.1471C25.2916 22.1644 25.0838 22.1814 24.9229 22.1908C24.8264 21.8907 24.67 21.4482 24.3358 20.8519C24.9515 20.6476 26.0302 20.2603 26.2858 18.9506C26.5375 17.6614 28.3113 17.2739 29.3774 17.053C29.67 16.9924 29.9727 16.9297 30.2553 16.8537C31.0486 16.6401 31.4088 15.9547 31.5651 15.2011C31.7315 14.3984 31.9242 13.3629 31.4208 12.6445C31.3987 12.6129 31.3753 12.5822 31.3509 12.5524C30.9304 12.0385 30.2978 11.9107 29.6318 11.8159C29.0797 11.7373 28.8715 11.5665 28.5832 11.3302C27.9167 10.7837 27.2167 10.3625 25.3941 10.7463C24.0941 11.02 23.7707 11.088 23.3232 10.9736C25.0446 10.1543 26.969 9.69497 28.999 9.69497C31.8359 9.69497 34.4672 10.5912 36.6254 12.115C36.0173 12.3411 35.3555 12.6433 34.8587 13.0976C33.6982 14.1586 34.1078 16.206 34.3884 16.8321C34.7728 17.6889 35.8374 17.5524 37.1851 17.3793C37.3654 17.3562 37.6105 17.3247 37.6903 17.3214C37.7364 17.324 37.7647 17.331 37.7771 17.3354C37.9103 17.5166 37.8082 18.1879 37.6475 18.5418C37.1332 18.5583 35.9773 18.4902 35.1991 18.2375C34.6329 18.054 34.0039 18.2917 33.4738 18.8899C33.1808 19.2206 32.7324 19.868 33.0206 20.4886C33.0474 20.5463 32.9899 20.6799 32.8509 20.9576C32.6407 21.3778 32.3228 22.0127 32.5654 22.7816C32.7942 23.5067 33.438 24.123 34.653 24.7795C35.4447 25.2072 36.1192 25.2586 36.6116 25.2961C36.7414 25.3059 36.9124 25.3188 36.9947 25.3382C37.0522 25.4511 37.1944 25.8893 37.162 27.4282C37.1494 28.0253 37.0367 28.3943 36.832 29.0642C36.7088 29.4672 36.5557 29.9685 36.3866 30.6489C36.2348 31.26 36.4785 31.8359 37.0227 32.1518C37.3483 32.3409 37.7811 32.4241 38.2558 32.4244C35.8651 34.7605 32.5975 36.2028 28.9988 36.2028C21.6908 36.2028 15.7451 30.2571 15.7451 22.9489Z" fill="url(#paint0_linear_5921_56526)"/>
</g>
<defs>
<linearGradient id="paint0_linear_5921_56526" x1="5.26562" y1="29.0051" x2="52.7325" y2="29.0051" gradientUnits="userSpaceOnUse">
<stop stop-color="#DC2626"/>
<stop offset="1" stop-color="#F97316"/>
</linearGradient>
<clipPath id="clip0_5921_56526">
<rect width="58" height="58" fill="white"/>
</clipPath>
</defs>
</svg>
